{"title":"Simon.of.the.Desert.1965.CRITERION.DVDRip.x264.AC3-KARiNA","uid":5306100,"size":1083158936,"categoryP":"video","categoryS":"movies","magnet":"?xt=urn:btih:a59677859df50d58156b679c7157dc738f511223&amp;dn=Simon.of.the.Desert.1965.CRITERION.DVDRip.x264.AC3-KARiNA&amp;tr=udp%3A%2F%2Ftracker.openbittorrent.com%3A80&amp;tr=udp%3A%2F%2Fopen.demonii.com%3A1337&amp;tr=udp%3A%2F%2Ftracker.coppersurfer.tk%3A6969&amp;tr=udp%3A%2F%2Fexodus.desync.com%3A6969","seeders":2,"leechers":1,"uploader":"KAR1NA","files":-1,"time":1264392939,"description":"\n          888    d8P         d8888 8888888b.  d8b 888b    888        d8888 \n          888   d8P         d88888 888   Y88b Y8P 8888b   888       d88888 \n          888  d8P         d88P888 888    888     88888b  888      d88P888 \n          888d88K         d88P 888 888   d88P 888 888Y88b 888     d88P 888 \n          8888888b       d88P  888 8888888P&quot;  888 888 Y88b888    d88P  888 \n          888  Y88b     d88P   888 888 T88b   888 888  Y88888   d88P   888 \n          888   Y88b   d8888888888 888  T88b  888 888   Y8888  d8888888888 \n          888    Y88b d88P     888 888   T88b 888 888    Y888 d88P     888 \n              \n              Simon.of.the.Desert.1965.CRITERION.DVDRip.x264.AC3-KARiNA \n                                                             \nSynopsis.\n\nSimon of the Desert | Mexico | 1965 | Directed by Luis Bunuel\n                                  \nForty minutes is more than enough screen time for Spanish director Luis Bunuel to \nstate his case in Simon of the Desert. Claudio Brook portrays fifth-century \nChristian Simon (later St. Simon Stylites) who dispenses religious sagacity while \nstanding on a tall column in the middle of the desert. Typical of Bunuel's hatred of the Church, the Devil (Silvia Pinal) is a far more entertaining and articulate \nspokesperson for his point of view than Simon is for Christianity. An abrupt,\nill-suited ending suggests that Bunuel either tired of the subject and wanted to moveon to other things, or that he ran out of money and had to wrap before the process servers showed up. This Mexican film was originally titled Simon del Desierto.\n\nIMdB: http://www.imdb.com/title/tt0059719/ | Rating: 8.1 / 10 (2,073 votes)\n                                     \nGeneral.\n                                                                  \nComplete name                    : Simon.of.the.Desert.1965.CRITERION.DVDRip.\nx264.AC3-KARiNA.mkv\nFormat                           : Matroska\nFile size                        : 1.01 GiB\nDuration                         : 45mn 34s\nOverall bit rate                 : 3 169 Kbps\nSource                           : Criterion NTSC DVD9\n                                       \nVideo.                         \n\nFormat                           : AVC\nBit rate                         : 2 913 Kbps\nNominal bit rate                 : 3 000 Kbps\nWidth                            : 664 pixels\nHeight                           : 448 pixels\nDisplay aspect ratio             : 4/3\nFrame rate                       : 23.976 fps\nResolution                       : 24 bits\nColorimetry                      : 4:2:0\nScan type                        : Progressive\nBits/(Pixel*Frame)               : 0.408\nStream size                      : 949 MiB (92%)\nWriting library                  : x264 core 79\n\nAudio.                            \n\nFormat                           : AC-3\nBit rate mode                    : Constant\nBit rate                         : 192 Kbps\nChannel(s)                       : 1 channel\nChannel positions                : C\nSampling rate                    : 48.0 KHz\nStream size                      : 62.6 MiB (6%)\nLanguage                         : Spanish\n\nSubtitles.\n\nFormat                           : UTF-8\nCodec ID                         : S_TEXT/UTF8\nCodec ID/Info                    : UTF-8 Plain Text\nLanguage                         : English\n","torrent":{"xt":"urn:btih:a59677859df50d58156b679c7157dc738f511223","amp;dn":"Simon.of.the.Desert.1965.CRITERION.DVDRip.x264.AC3-KARiNA","amp;tr":["udp%3A%2F%2Ftracker.openbittorrent.com%3A80","udp%3A%2F%2Fopen.demonii.com%3A1337","udp%3A%2F%2Ftracker.coppersurfer.tk%3A6969","udp%3A%2F%2Fexodus.desync.com%3A6969"],"infoHash":"a59677859df50d58156b679c7157dc738f511223","infoHashBuffer":{"type":"Buffer","data":[165,150,119,133,157,245,13,88,21,107,103,156,113,87,220,115,143,81,18,35]},"announce":[],"urlList":[]}}